# xmcd
#
# Track frame offsets: 
#        187
#        16922
#        36342
#
# Disc length: 747 seconds
#
# Revision: 1
# Processed by: cddbd v1.5PL3 Copyright (c) Steve Scherf et al.
# Submitted via: ExactAudioCopy v0.95a4
#
DISCID=1b02e903
DTITLE=bridge - WINDY AFTERNOON
DYEAR=1992
DGENRE=
TTITLE0=WINDY AFTERNOON
TTITLE1=GOING TO THE SEA, YOU KISS ME
TTITLE2=HE, SHE AND I
EXTD=
EXTT0=
EXTT1=
EXTT2=
PLAYORDER=
